<svg width="100" height="100" viewBox="0 0 100 100" xmlns="http://www.w3.org/2000/svg">
  <circle cx="50" cy="50" r="50" fill="black"/>
  <path d="M49.52 38.56C54.64 38.8 55.96 43.16 56.04 45.2H63.2C62.88 37.28 57.24 32.44 49.4 32.44C40.56 32.44 34 38 34 50.56C34 58.32 37.72 67.52 49.36 67.52C58.24 67.52 63 60.92 63.12 55.72H55.96C55.84 58.08 54.16 61.24 49.44 61.48C44.2 61.32 42 57.24 42 50.56C42 39 47.12 38.64 49.52 38.56ZM50 10C27.92 10 10 27.92 10 50C10 72.08 27.92 90 50 90C72.08 90 90 72.08 90 50C90 27.92 72.08 10 50 10ZM50 82C32.36 82 18 67.64 18 50C18 32.36 32.36 18 50 18C67.64 18 82 32.36 82 50C82 67.64 67.64 82 50 82Z" fill="white"/>
</svg>