<svg
  xmlns="http://www.w3.org/2000/svg"
  viewBox="0 0 112 93"
>
  <path fill="#fff" d="M55.87,92.93c-17.62,0-35.24-.07-52.86.07-2.6,0-3-.71-3-3.11Q.14,46.52,0,3.14C0,.83.3,0,3,0Q56.08.18,109.2,0c2.46,0,2.77.62,2.76,2.86-.08,29.08-.12,58.17,0,87.25,0,2.94-1.19,2.85-3.26,2.84Q82.31,92.89,55.87,92.93Z"/>
  <path fill="#090909" d="M52.27,59.42c-10.81,0-21.62.06-32.43,0C11.43,59.34,8.19,56,8.16,47.46c0-8-.07-16,0-23.94.08-7.6,3.76-11.27,11.45-11.29q32.67-.09,65.34,0c7.75,0,11.18,3.55,11.23,11.33q.07,12.47,0,24.94c-.06,7.61-3.25,10.84-11,10.91C74.22,59.5,63.24,59.42,52.27,59.42Z"/>
  <path fill="#0b0b0b" d="M43.23,68c2.5.29,3.84,2.18,5.31,3.64,2.57,2.56,4.62,2.92,7.41.11,1.82-1.82,4-6,7.15-2.53S62,74.37,60,76.17c-7.79,6.93-7.84,6.87-15.71-.32a16.17,16.17,0,0,1-3.19-3.09C39.54,70.25,40.89,68.8,43.23,68Z"/>
  <path fill="#fff" d="M52.5,53.13c-10.64,0-21.27-.16-31.9.08-4.46.1-6.4-1.3-6.27-5.93.22-7.8.13-15.62,0-23.42,0-3.76,1.55-5.45,5.36-5.44q32.64.07,65.3,0c3.5,0,5.1,1.4,5,5.09-.17,8.14-.21,16.29,0,24.42.11,3.9-1.26,5.31-5.17,5.25C74.1,53,63.3,53.13,52.5,53.13Z"/>
  <path fill="#0b0b0b" d="M52.42,49c-5.3,0-10.6,0-15.89,0-2.13,0-3.53-.46-3.45-3s1.88-2.37,3.5-2.38q15.64,0,31.29,0c1.92,0,3.75.07,3.72,2.74S69.74,49,67.81,49C62.68,49,57.55,49,52.42,49Z"/>
  <path fill="#1c1c1c" d="M35.93,27.05c-2.06.18-2.87-.68-2.91-2.56s.68-2.7,2.58-2.74,3.12.68,3,2.85C38.49,26.42,37.64,27.34,35.93,27.05Z"/>
  <path fill="#1c1c1c" d="M57.77,21.78c1.79-.11,2.79.6,2.81,2.53,0,2.12-1,2.87-3.07,2.8S55,26,55,24.29C55,22.29,56,21.69,57.77,21.78Z"/>
  <path fill="#1c1c1c" d="M80,27c-1.68.1-2.89-.34-3-2.33s.56-3.11,2.73-3.09c1.76,0,2.84.64,2.82,2.57C82.51,25.86,82,27.12,80,27Z"/>
  <path fill="#212121" d="M38.6,35.26c0,1.69-.48,2.82-2.48,2.86S33,37.62,33,35.38c0-1.93.89-2.6,2.71-2.6S38.62,33.29,38.6,35.26Z"/>
  <path fill="#212121" d="M57.92,38.08c-1.78.12-2.85-.42-2.93-2.41-.1-2.17.84-2.93,2.91-2.9,1.88,0,2.71.87,2.69,2.7S59.8,38.27,57.92,38.08Z"/>
  <path fill="#1d1d1d" d="M82.53,35.3c0,1.72-.6,2.75-2.57,2.77s-3-.78-3-2.9,1.12-2.49,2.83-2.5S82.6,33.39,82.53,35.3Z"/>
  <path fill="#1c1c1c" d="M82.52,46.45c0,1.84-1,2.59-2.79,2.58-2.23,0-2.81-1.19-2.74-3.14s1.41-2.32,3-2.3C81.93,43.61,82.59,44.71,82.52,46.45Z"/>
  <path fill="#101010" d="M25.2,27c-1.8.07-3-.29-3.16-2.28s.52-3.07,2.65-3.06c1.74,0,2.8.59,2.73,2.51C27.37,25.75,27.11,27.13,25.2,27Z"/>
  <path fill="#0e0e0e" d="M46.6,27c-2,.11-2.57-1-2.61-2.77,0-2.09,1.13-2.43,2.84-2.46,2,0,2.62.94,2.57,2.76S48.42,27.26,46.6,27Z"/>
  <path fill="#101010" d="M69,27c-1.62.06-2.84-.3-3-2.29s.52-3.07,2.65-3.06c1.74,0,2.79.59,2.74,2.51C71.32,25.76,71,27.11,69,27Z"/>
  <path fill="#0e0e0e" d="M27.4,35.52c0,2-1,2.56-2.87,2.51-2-.06-2.47-1.12-2.5-2.89,0-2.14,1.25-2.39,2.9-2.42C26.94,32.69,27.57,33.75,27.4,35.52Z"/>
  <path fill="#0d0d0d" d="M46.8,38C45,38.17,44,37.46,44,35.51s.75-2.66,2.62-2.68,2.81.57,2.79,2.53C49.38,37.14,48.77,38.24,46.8,38Z"/>
  <path fill="#0e0e0e" d="M68.76,32.74c1.85-.14,2.66.77,2.62,2.65s-.81,2.7-2.74,2.65S66,37.19,66,35.31,66.91,32.66,68.76,32.74Z"/>
  <path fill="#101010" d="M27.41,46.05c.05,1.85-.51,3-2.54,2.94-1.81,0-2.77-.65-2.84-2.59s.72-2.74,2.58-2.78S27.52,44.17,27.41,46.05Z"/>
</svg>