<svg width="165" height="165" viewBox="0 0 165 165" fill="none" xmlns="http://www.w3.org/2000/svg">
<circle cx="82.5" cy="82.5" r="82.5" fill="black"/>
<path d="M71.2244 85.321C71.2244 85.321 67.9491 87.2268 73.5578 87.8707C80.3546 88.6468 83.8263 88.5351 91.3138 87.1187C91.3138 87.1187 93.2851 88.353 96.0369 89.4208C79.2469 96.6153 58.0384 89.0046 71.2244 85.321ZM69.172 75.9325C69.172 75.9325 65.4975 78.6522 71.1113 79.2327C78.3719 79.9826 84.103 80.0438 94.0264 78.1343C94.0264 78.1343 95.3966 79.5251 97.5529 80.2849C77.2557 86.2216 54.65 80.7523 69.172 75.9325Z" fill="white"/>
<path d="M86.4663 60.0048C90.6052 64.7691 85.3814 69.0539 85.3814 69.0539C85.3814 69.0539 95.886 63.6323 91.0613 56.8405C86.5566 50.5097 83.1013 47.3645 101.805 36.5184C101.805 36.5184 72.4451 43.848 86.4663 60.0048Z" fill="white"/>
<path d="M108.671 92.2657C108.671 92.2657 111.096 94.2648 106.001 95.8107C96.3122 98.7452 65.6683 99.6302 57.1563 95.9273C54.0987 94.5956 59.8355 92.7495 61.6403 92.3596C63.5227 91.9527 64.5969 92.0267 64.5969 92.0267C61.1942 89.6307 42.603 96.7327 55.1551 98.7701C89.3823 104.32 117.548 96.2717 108.671 92.2657ZM72.8001 66.204C72.8001 66.204 57.2146 69.9069 67.2818 71.2529C71.5338 71.8213 80.0039 71.6904 87.8998 71.0281C94.3508 70.4867 100.826 69.3285 100.826 69.3285C100.826 69.3285 98.5531 70.3039 96.9062 71.4265C81.0767 75.5903 50.5018 73.651 59.3047 69.3947C66.7475 65.7943 72.8001 66.204 72.8001 66.204ZM100.761 81.8315C116.851 73.4725 109.412 65.4378 104.218 66.5206C102.948 66.786 102.378 67.015 102.378 67.015C102.378 67.015 102.852 66.2737 103.753 65.955C114.026 62.3446 121.926 76.6062 100.44 82.2541C100.44 82.2541 100.687 82.0307 100.761 81.8315Z" fill="white"/>
<path d="M91.0613 19C91.0613 19 99.9702 27.9146 82.609 41.6185C68.6861 52.6154 79.4347 58.8836 82.6048 66.0482C74.4762 58.7157 68.5139 52.2597 72.5134 46.2526C78.3854 37.4347 94.656 33.1584 91.0613 19Z" fill="white"/>
<path d="M74.383 104.49C89.8248 105.477 113.542 103.941 114.105 96.6331C114.105 96.6331 113.025 99.4033 101.342 101.601C88.1601 104.082 71.8995 103.793 62.2585 102.202C62.2585 102.202 64.2341 103.837 74.383 104.49Z" fill="white"/>
<path d="M71.8525 132.41C70.3963 133.672 68.8568 134.382 67.4745 134.382C65.5054 134.382 64.4368 133.199 64.4368 131.306C64.4368 129.257 65.5808 127.757 70.1594 127.757H71.8518L71.8525 132.41ZM75.872 136.945V122.907C75.872 119.32 73.826 116.952 68.8938 116.952C66.0162 116.952 63.4935 117.663 61.4425 118.569L62.033 121.055C63.6486 120.462 65.7373 119.912 67.7876 119.912C70.6289 119.912 71.8518 121.055 71.8518 123.422V125.197H70.4319C63.5298 125.197 60.4152 127.874 60.4152 131.9C60.4152 135.369 62.4677 137.341 66.3313 137.341C68.8148 137.341 70.6702 136.316 72.4025 134.816L72.7176 136.945H75.872ZM89.287 136.945H84.2751L78.2403 117.309H82.6183L86.3638 129.376L87.1976 133.001C89.0871 127.757 90.4281 122.434 91.099 117.309H95.356C94.2163 123.775 92.1632 130.873 89.287 136.945ZM108.521 132.41C107.061 133.672 105.521 134.382 104.142 134.382C102.173 134.382 101.106 133.199 101.106 131.306C101.106 129.257 102.25 127.757 106.826 127.757H108.521V132.41ZM112.542 136.945V122.907C112.542 119.32 110.49 116.952 105.563 116.952C102.682 116.952 100.16 117.663 98.1092 118.569L98.6996 121.055C100.315 120.462 102.408 119.912 104.459 119.912C107.296 119.912 108.521 121.055 108.521 123.422V125.197H107.101C100.198 125.197 97.0854 127.874 97.0854 131.9C97.0854 135.369 99.1336 137.341 102.998 137.341C105.484 137.341 107.336 136.316 109.073 134.816L109.389 136.945H112.542ZM56.0081 140.281C54.8627 141.955 53.0102 143.281 50.9848 144.028L49 141.691C50.543 140.899 51.8648 139.621 52.4802 138.431C53.0102 137.371 53.2315 136.008 53.2315 132.746V110.326H57.5035V132.436C57.5035 136.8 57.1549 138.563 56.0081 140.281Z" fill="white"/>
</svg>
