<svg width="135" height="28" viewBox="0 0 135 28" fill="none" xmlns="http://www.w3.org/2000/svg">
<path d="M125.348 2.05026C126.675 3.36301 127.421 5.14349 127.421 7V21C127.421 21.9192 127.604 22.8295 127.96 23.6788C128.316 24.528 128.837 25.2997 129.494 25.9497C130.152 26.5997 130.932 27.1153 131.791 27.4672C132.65 27.819 133.57 28 134.5 28H0V21V7C0 5.14349 0.745834 3.36301 2.07343 2.05026C3.40086 0.737497 5.20148 0 7.07895 0H120.342C122.22 0 124.02 0.737497 125.348 2.05026Z" fill="#2680D9"/>
<path d="M36.2102 22.183C34.5863 22.183 33.3333 21.8028 32.4499 21.0423C31.582 20.2817 31.1474 19.1551 31.1474 17.6623V10.5643H32.8987V17.7891C32.8987 18.8171 33.1847 19.5635 33.7538 20.0283C34.323 20.4789 35.1427 20.7042 36.2102 20.7042C37.2791 20.7042 38.0975 20.4789 38.6666 20.0283C39.2372 19.5635 39.5218 18.8171 39.5218 17.7891V10.5643H41.2731V17.6623C41.2731 19.1551 40.8314 20.2817 39.9493 21.0423C39.08 21.8028 37.8341 22.183 36.2102 22.183ZM44.2703 21.9717V10.5643H45.8503L45.9579 11.9375C46.4988 11.4587 47.1033 11.0784 47.773 10.7967C48.4568 10.501 49.261 10.3531 50.1869 10.3531C51.4116 10.3531 52.3587 10.7052 53.0284 11.4093C53.6981 12.1135 54.0322 13.1205 54.0322 14.4302V21.9717H52.2809V14.4512C52.2809 13.5218 52.06 12.8528 51.6183 12.4445C51.178 12.036 50.4941 11.8318 49.5682 11.8318C48.8278 11.8318 48.1581 11.9867 47.5592 12.2966C46.9759 12.5923 46.4634 12.9655 46.0216 13.4162V21.9717H44.2703ZM58.9818 21.9717C58.3702 21.9717 57.886 21.7886 57.5292 21.4225C57.188 21.0423 57.0167 20.5493 57.0167 19.9438V10.5643H58.768V19.5213C58.768 20.2114 59.1035 20.5565 59.7732 20.5565H60.9908V21.9717H58.9818ZM67.2004 22.183C66.4883 22.183 65.7903 22.1337 65.1065 22.0352C64.4368 21.9506 63.8748 21.8168 63.4189 21.6338V20.0915C63.9597 20.3028 64.5359 20.4578 65.149 20.5565C65.7606 20.655 66.3453 20.7042 66.9003 20.7042C67.9395 20.7042 68.7168 20.6058 69.2293 20.4085C69.7559 20.1972 70.0207 19.7466 70.0207 19.0565C70.0207 18.5636 69.8834 18.1975 69.613 17.9581C69.3567 17.7045 68.9872 17.5003 68.503 17.3454C68.0188 17.1763 67.4341 16.9793 66.7502 16.7539C66.1245 16.5427 65.5341 16.3103 64.9777 16.0567C64.4227 15.7892 63.9739 15.4512 63.6327 15.0429C63.29 14.6345 63.1187 14.0993 63.1187 13.4373C63.1187 12.4374 63.4897 11.6769 64.2301 11.1558C64.9847 10.6207 66.1032 10.3531 67.5841 10.3531C68.2113 10.3531 68.83 10.4024 69.4431 10.501C70.0547 10.5995 70.5686 10.7192 70.982 10.8601V12.381C70.512 12.198 69.998 12.0642 69.4431 11.9797C68.9008 11.8811 68.3671 11.8318 67.8404 11.8318C66.872 11.8318 66.1315 11.9375 65.619 12.1487C65.1207 12.3459 64.8715 12.7614 64.8715 13.3951C64.8715 13.8035 64.9989 14.1344 65.2552 14.3879C65.5256 14.6273 65.9036 14.8386 66.3878 15.0216C66.8862 15.1907 67.485 15.3878 68.183 15.6132C68.881 15.8385 69.4997 16.092 70.0419 16.3737C70.5828 16.6412 71.0018 16.9862 71.3006 17.4087C71.6149 17.8171 71.772 18.3593 71.772 19.0354C71.772 20.1761 71.3515 20.986 70.512 21.4648C69.671 21.9436 68.5667 22.183 67.2004 22.183ZM62.8398 8.642L62.9248 7.39565H69.8466V5.60001H71.3204V8.642H62.8398ZM78.9897 22.183C77.4366 22.183 76.1992 21.9085 75.2733 21.3591C74.3615 20.7959 73.9056 19.9157 73.9056 18.7186C73.9056 18.0566 74.0557 17.5004 74.3544 17.0498C74.6673 16.585 75.1006 16.2399 75.657 16.0145C75.1728 15.8596 74.7664 15.5779 74.4394 15.1696C74.1251 14.761 73.9693 14.219 73.9693 13.543C73.9693 12.4726 74.2893 11.6769 74.9307 11.1558C75.5706 10.6207 76.3903 10.3531 77.3871 10.3531C77.7722 10.3531 78.1063 10.3742 78.3909 10.4165C78.6754 10.4587 78.9317 10.5151 79.1596 10.5855V12.0219C78.9756 11.9515 78.7547 11.9022 78.4985 11.8741C78.2422 11.8459 77.9788 11.8318 77.7084 11.8318C77.0812 11.8318 76.59 11.9727 76.2346 12.2543C75.892 12.5219 75.7221 12.9515 75.7221 13.543C75.7221 14.1625 75.9274 14.6203 76.3408 14.916C76.7542 15.1977 77.295 15.3385 77.9647 15.3385H79.1823L79.2885 16.6484H77.8996C77.145 16.6484 76.5829 16.8314 76.2134 17.1975C75.8424 17.5496 75.657 18.0566 75.657 18.7186C75.657 20.0424 76.7457 20.7042 78.9246 20.7042C80.0218 20.7042 80.8402 20.5001 81.3824 20.0915C81.9374 19.6692 82.2149 19.0001 82.2149 18.0848V10.5643H83.9676V17.7891C83.9676 19.2115 83.5684 20.3028 82.7713 21.0633C81.9742 21.8098 80.7128 22.183 78.9897 22.183ZM90.7988 22.183C89.56 22.183 88.6072 21.8309 87.9375 21.1268C87.282 20.4226 86.955 19.4086 86.955 18.0848V10.5643H88.7063V18.0636C88.7063 19.0072 88.9201 19.6832 89.3462 20.0915C89.7738 20.5001 90.4505 20.7042 91.3765 20.7042C92.1028 20.7042 92.7724 20.5563 93.3855 20.2607C93.9971 19.9648 94.5238 19.5916 94.9655 19.1409V10.5643H96.7168V21.9717H95.1368L95.0292 20.5986C94.5025 21.0774 93.898 21.4647 93.2142 21.7605C92.5303 22.0422 91.7247 22.183 90.7988 22.183Z" fill="white"/>
</svg>
