<svg width="295" height="189" viewBox="0 0 295 189" xmlns="http://www.w3.org/2000/svg">
  <rect height="189" width="295" fill="hsl(0, 0%, 0%)" />
  <path d="M295 73.5C295 37 205.79 0 173.157 0C140.524 0 114.07 26.4541 114.07 59.0868C114.07 91.7196 140.524 118.174 173.157 118.174C205.79 118.174 295 106 295 73.5Z" fill="#664785"/>
  <path d="M170 83.742L185.396 43.5994H197.801L213.197 83.742H200.98L197.614 75.2024H185.521L182.217 83.742H170ZM187.079 66.7874H196.055L191.567 55.0064L187.079 66.7874ZM224.538 83.742L209.141 43.5994H221.359L230.709 70.1534L240.059 43.5994H252.338L236.942 83.742H224.538ZM247.065 83.742L262.461 43.5994H274.865L290.262 83.742H278.044L274.678 75.2024H262.586L259.282 83.742H247.065ZM264.144 66.7874H273.12L268.632 55.0064L264.144 66.7874Z" fill="#67B9DA"/>
  <path d="M6.545 83.742C4.55033 83.742 2.95044 83.1394 1.74533 81.9343C0.581778 80.6877 0 79.1086 0 77.197V50.082H11.7187V74.205C11.7187 75.4932 12.3628 76.1373 13.651 76.1373H16.2067V83.742H6.545ZM32.6053 84.3653C30.0288 84.3653 27.577 84.1783 25.2499 83.8043C22.9228 83.4303 21.0944 82.9732 19.7646 82.433V73.5193C21.3022 74.1842 23.0267 74.7452 24.9383 75.2023C26.8498 75.6179 28.6367 75.8257 30.2989 75.8257C32.3352 75.8257 33.7273 75.701 34.4753 75.4517C35.2233 75.1608 35.5973 74.6621 35.5973 73.9557C35.5973 73.0415 34.9947 72.3558 33.7895 71.8987C32.626 71.4 30.6937 70.652 27.9926 69.6547C25.1253 68.5742 22.9644 67.3276 21.5099 65.9147C20.0555 64.4602 19.3283 62.4448 19.3283 59.8683C19.3283 56.7932 20.5542 54.2999 23.0059 52.3883C25.4993 50.4352 29.26 49.4587 34.2883 49.4587C36.366 49.4587 38.4646 49.6249 40.5839 49.9573C42.7448 50.2482 44.4486 50.5807 45.6953 50.9547V59.7437C44.3655 59.1619 42.8487 58.7256 41.1449 58.4347C39.4412 58.1438 37.9452 57.9983 36.6569 57.9983C35.0778 57.9983 33.7896 58.123 32.7923 58.3723C31.7949 58.6217 31.2963 59.1827 31.2963 60.0553C31.2963 60.9696 31.9404 61.6137 33.2286 61.9877C34.5168 62.3617 36.3037 63.0058 38.5893 63.92C41.041 64.8342 42.911 65.7484 44.1993 66.6627C45.4875 67.5353 46.3602 68.5535 46.8173 69.717C47.3159 70.8806 47.5653 72.3766 47.5653 74.205C47.5653 77.3632 46.277 79.8566 43.7006 81.685C41.1242 83.4719 37.4257 84.3653 32.6053 84.3653ZM16.5812 46.529L17.1422 38.7373H36.9019V34H46.3142V46.529H16.5812ZM68.5672 84.3653C63.1234 84.3653 58.8224 83.4303 55.6642 81.5603C52.5475 79.6488 50.9892 76.8022 50.9892 73.0207C50.9892 71.6078 51.2801 70.3196 51.8619 69.156C52.4436 67.9924 53.3163 67.0367 54.4799 66.2887C53.5241 65.7069 52.7137 64.8342 52.0489 63.6707C51.4255 62.5071 51.1139 61.1358 51.1139 59.5567C51.1139 56.1491 52.2359 53.6142 54.4799 51.952C56.7239 50.2898 59.7366 49.4587 63.5182 49.4587C64.9726 49.4587 66.2401 49.5626 67.3205 49.7703C68.401 49.9366 69.336 50.1651 70.1255 50.456V58.4347C68.962 58.1438 67.7361 57.9983 66.4479 57.9983C65.409 57.9983 64.5779 58.1646 63.9545 58.497C63.3727 58.7879 63.0819 59.3904 63.0819 60.3047C63.0819 61.2604 63.3727 61.9046 63.9545 62.237C64.5363 62.5279 65.3466 62.6733 66.3855 62.6733H69.5022L69.8762 70.1533H66.3232C64.0792 70.1533 62.9572 71.1091 62.9572 73.0207C62.9572 73.9349 63.352 74.6413 64.1415 75.14C64.9311 75.5971 66.344 75.8257 68.3802 75.8257C72.2864 75.8257 74.2395 74.2881 74.2395 71.213V50.082H85.9582V70.7767C85.9582 75.4309 84.4206 78.8592 81.3455 81.0617C78.312 83.2641 74.0525 84.3653 68.5672 84.3653ZM103.208 84.3653C99.7178 84.3653 96.892 83.3264 94.7311 81.2487C92.6118 79.1709 91.5521 76.2412 91.5521 72.4597V50.082H103.271V71.213C103.271 72.7921 103.624 73.9557 104.33 74.7037C105.037 75.4101 106.18 75.7633 107.759 75.7633C108.964 75.7633 110.086 75.5348 111.125 75.0777C112.164 74.6206 112.974 74.0596 113.556 73.3947V50.082H125.274V83.742H114.428L113.992 81.124C112.704 82.0798 111.125 82.8693 109.255 83.4927C107.426 84.0744 105.411 84.3653 103.208 84.3653Z" fill="white"/>
  <path d="M175.93 4.34082H155.095C151.259 4.34082 148.149 7.45031 148.149 11.2861C148.149 15.1218 151.259 18.2313 155.095 18.2313H175.93C179.766 18.2313 182.876 15.1218 182.876 11.2861C182.876 7.45031 179.766 4.34082 175.93 4.34082Z" fill="#67B9DA"/>
  <path d="M131.135 71.7555L145.868 86.4886C148.581 89.2009 152.978 89.2009 155.69 86.4886C158.403 83.7764 158.403 79.3789 155.69 76.6666L140.957 61.9335C138.245 59.2212 133.847 59.2212 131.135 61.9334C128.423 64.6457 128.423 69.0432 131.135 71.7555Z" fill="#67B9DA"/>
  <path d="M158.567 11.2861V66.8482C158.567 70.684 161.676 73.7935 165.512 73.7935C169.348 73.7935 172.457 70.684 172.457 66.8482V11.2861C172.457 7.45036 169.348 4.34088 165.512 4.34088C161.676 4.34088 158.567 7.45036 158.567 11.2861Z" fill="#67B9DA"/>
  <path d="M160.605 61.9367L145.871 76.6698C143.159 79.3821 143.159 83.7795 145.871 86.4918C148.584 89.2041 152.981 89.2041 155.694 86.4918L170.427 71.7587C173.139 69.0464 173.139 64.6489 170.427 61.9366C167.714 59.2243 163.317 59.2244 160.605 61.9367Z" fill="#67B9DA"/>
  <path d="M145.877 81.5829L165.521 101.227L170.432 96.3161L150.788 76.6719L145.877 81.5829Z" fill="#16389C"/>
  <path d="M165.518 61.9366L145.874 81.5808L150.785 86.4919L170.429 66.8477L165.518 61.9366Z" fill="#116699"/>
  <path d="M44.2567 167.2C41.5971 167.2 39.4639 166.396 37.8571 164.789C36.3057 163.127 35.53 161.022 35.53 158.473V121.488C35.53 119.383 35.8624 117.416 36.5273 115.588C37.1922 113.704 38.1341 112.291 39.3531 111.349H28.8811V101.209H58.0531V110.268C55.5043 110.989 53.7037 112.402 52.6509 114.507C51.6535 116.557 51.1549 119.134 51.1549 122.236V154.484C51.1549 156.202 52.0137 157.06 53.7313 157.06H57.1389V167.2H44.2567ZM79.1874 168.031C75.4197 168.031 72.0675 167.31 69.1309 165.87C66.1944 164.43 63.8949 162.13 62.2327 158.972C60.5705 155.757 59.7393 151.519 59.7393 146.256C59.7393 138.277 61.8171 132.154 65.9727 127.888C70.1282 123.622 76.4723 121.488 85.0051 121.488C90.6012 121.488 95.1447 122.375 98.6354 124.148C102.126 125.866 104.675 128.137 106.282 130.963C107.944 133.733 108.775 136.725 108.775 139.939V167.2H93.15V141.352C93.15 138.748 92.5959 136.698 91.4878 135.202C90.3797 133.65 88.1079 132.875 84.6727 132.875C81.5145 132.875 79.215 133.928 77.7745 136.033C76.3892 138.138 75.6967 141.545 75.6967 146.256C75.6967 150.135 76.2508 152.849 77.3589 154.4C78.5225 155.896 80.3786 156.644 82.9274 156.644C83.8139 156.644 84.7003 156.589 85.5869 156.478C86.4735 156.368 87.2491 156.202 87.914 155.98V166.535C86.8612 166.977 85.6146 167.339 84.174 167.615C82.7888 167.892 81.1266 168.031 79.1874 168.031ZM86.2648 117.665V110.684H79.8652V100.628H96.155V107.609H113.608L113.027 117.665H86.2648ZM116.268 167.2V122.32H130.73L131.312 125.81C133.084 124.536 135.189 123.511 137.628 122.735C140.066 121.904 142.752 121.488 145.69 121.488C150.344 121.488 154.084 122.874 156.91 125.644C159.79 128.359 161.232 132.266 161.232 137.363V167.2H145.607V139.025C145.607 136.92 145.135 135.395 144.194 134.454C143.251 133.456 141.728 132.958 139.623 132.958C138.071 132.958 136.575 133.263 135.135 133.872C133.749 134.481 132.669 135.229 131.893 136.116V167.2H116.268ZM148.503 188.559V180.082H143.6L144.098 170.441H161.136V188.559H148.503ZM168.451 167.2V153.071C168.451 150.91 168.921 148.915 169.864 147.087C170.805 145.202 172.384 143.901 174.601 143.18L167.038 140.853V129.052C169.531 127.168 172.772 125.45 176.762 123.899C180.751 122.292 185.266 121.488 190.309 121.488C198.398 121.488 204.326 123.123 208.095 126.392C211.862 129.661 213.746 134.26 213.746 140.188V167.2H198.121V140.687C198.121 137.861 197.428 135.867 196.044 134.703C194.714 133.484 192.497 132.875 189.393 132.875C187.566 132.875 185.848 133.124 184.242 133.623C182.69 134.065 181.387 134.676 180.336 135.451V136.116L189.062 138.859V146.172C187.344 146.671 186.07 147.475 185.239 148.583C184.463 149.636 184.076 151.215 184.076 153.32V167.2H168.451ZM221.212 167.2V122.32H235.673L236.255 125.81C238.028 124.536 240.134 123.511 242.571 122.735C245.009 121.904 247.697 121.488 250.633 121.488C255.287 121.488 259.027 122.874 261.853 125.644C264.735 128.359 266.175 132.266 266.175 137.363V167.2H250.55V139.025C250.55 136.92 250.079 135.395 249.137 134.454C248.196 133.456 246.671 132.958 244.566 132.958C243.014 132.958 241.518 133.263 240.078 133.872C238.693 134.481 237.612 135.229 236.837 136.116V167.2H221.212ZM226.519 117.582L227.267 107.193H253.614V100.877H266.163V117.582H226.519ZM253.614 97.7187V86H266.163V97.7187H253.614Z" fill="white"/>
  <path d="M188.127 66.8476L205.54 84.2603L208.227 81.5733L190.814 64.1606L188.127 66.8476Z" fill="#16389C"/>
  <path d="M205.536 78.9103L188.13 96.3162L190.817 99.0032L208.223 81.5973L205.536 78.9103Z" fill="#16389C"/>
  <path d="M181.28 50.2002L170.426 111.758L174.168 112.418L185.022 50.8601L181.28 50.2002Z" fill="#16389C"/>
</svg>