<svg width="135" height="28" viewBox="0 0 135 28" fill="none" xmlns="http://www.w3.org/2000/svg">
<path d="M9.15233 2.05026C7.82476 3.36301 7.07895 5.14349 7.07895 7V21C7.07895 21.9192 6.89584 22.8295 6.5401 23.6788C6.18434 24.528 5.66292 25.2997 5.00557 25.9497C4.34823 26.5997 3.56786 27.1153 2.709 27.4672C1.85014 27.819 0.92962 28 0 28H134.5V21V7C134.5 5.14349 133.754 3.36301 132.427 2.05026C131.099 0.737497 129.299 0 127.421 0H14.1579C12.2804 0 10.4799 0.737497 9.15233 2.05026Z" fill="#2680D9"/>
<path d="M37.9715 23.31C37.7166 23.31 37.4689 23.282 37.2282 23.226C36.9875 23.184 36.7468 23.107 36.5061 22.995L36.7185 21.693C36.8176 21.721 36.9309 21.749 37.0583 21.777C37.1857 21.805 37.3061 21.819 37.4193 21.819C37.6458 21.819 37.8087 21.756 37.9078 21.63C38.0069 21.49 38.0564 21.273 38.0564 20.979V19.026C38.0564 18.158 38.2192 17.535 38.5449 17.157C38.8705 16.765 39.3377 16.499 39.9465 16.359L39.9677 16.296L37.5255 15.414V14.721C37.5255 14.147 37.7096 13.608 38.0777 13.104C38.4599 12.586 39.0121 12.173 39.7341 11.865C40.4562 11.543 41.3198 11.382 42.325 11.382C43.2028 11.382 44.0098 11.522 44.746 11.802C45.4822 12.068 46.0698 12.495 46.5087 13.083C46.9617 13.657 47.1883 14.413 47.1883 15.351V23.1H45.2982V15.54C45.2982 14.602 45.0079 13.937 44.4275 13.545C43.847 13.139 43.1391 12.936 42.3038 12.936C41.426 12.936 40.7323 13.118 40.2226 13.482C39.7129 13.832 39.4581 14.28 39.4581 14.826L41.8791 15.96L41.7092 16.968C41.1853 16.968 40.7606 17.136 40.4349 17.472C40.1093 17.808 39.9465 18.347 39.9465 19.089V21.126C39.9465 21.98 39.7554 22.561 39.3731 22.869C38.9908 23.163 38.5236 23.31 37.9715 23.31ZM53.9107 23.1V14.931C53.9107 14.245 53.7478 13.741 53.4221 13.419C53.1107 13.097 52.5797 12.936 51.8294 12.936C51.3197 12.936 50.8383 13.006 50.3853 13.146C49.9464 13.272 49.5216 13.454 49.111 13.692V12.012C49.3942 11.872 49.7977 11.732 50.3215 11.592C50.8454 11.452 51.4683 11.382 52.1904 11.382C52.9266 11.382 53.5637 11.487 54.1018 11.697C54.6398 11.907 55.0575 12.257 55.3548 12.747C55.6521 13.223 55.8008 13.86 55.8008 14.658V23.1H53.9107ZM60.4994 23.1L58.3969 11.592H60.3295L61.1577 16.59C61.2285 16.996 61.2993 17.521 61.3701 18.165C61.4409 18.809 61.5258 19.572 61.6249 20.454H61.6886C61.8161 19.852 61.9364 19.313 62.0497 18.837C62.1771 18.361 62.2903 17.934 62.3895 17.556C62.5027 17.164 62.6018 16.821 62.6868 16.527L64.1096 11.592H65.6599L67.104 16.527C67.189 16.821 67.281 17.164 67.3801 17.556C67.4934 17.934 67.6066 18.361 67.7199 18.837C67.8473 19.313 67.9747 19.852 68.1022 20.454H68.1871C68.2721 19.572 68.3499 18.809 68.4207 18.165C68.4915 17.521 68.5623 16.996 68.6331 16.59L69.4826 11.592H71.4153L69.3127 23.1H67.4651L65.5113 16.842C65.4122 16.492 65.3131 16.128 65.214 15.75C65.129 15.372 65.0441 14.875 64.9591 14.259H64.8742C64.8175 14.665 64.7538 15.022 64.683 15.33C64.6122 15.638 64.5415 15.911 64.4707 16.149C64.3999 16.387 64.3291 16.618 64.2583 16.842L62.347 23.1H60.4994ZM77.283 23.31C76.4477 23.31 75.669 23.233 74.9469 23.079C74.239 22.911 73.6373 22.715 73.1418 22.491L73.694 20.979C73.9913 21.091 74.3311 21.21 74.7133 21.336C75.0956 21.462 75.5062 21.567 75.9451 21.651C76.3981 21.721 76.8583 21.756 77.3255 21.756C78.0758 21.756 78.6988 21.616 79.1943 21.336C79.6898 21.056 79.9376 20.65 79.9376 20.118C79.9376 19.796 79.8456 19.523 79.6615 19.299C79.4916 19.061 79.2226 18.844 78.8545 18.648C78.4864 18.452 78.0121 18.263 77.4317 18.081C76.5397 17.801 75.7823 17.507 75.1593 17.199C74.5505 16.877 74.0833 16.499 73.7577 16.065C73.4462 15.617 73.2905 15.064 73.2905 14.406C73.2905 13.818 73.4462 13.3 73.7577 12.852C74.0833 12.39 74.5788 12.033 75.2443 11.781C75.9238 11.515 76.7875 11.382 77.8352 11.382C78.5147 11.382 79.1518 11.445 79.7465 11.571C80.3553 11.683 80.8295 11.844 81.1693 12.054V13.629C80.9287 13.517 80.6243 13.405 80.2562 13.293C79.9022 13.181 79.5129 13.09 79.0881 13.02C78.6634 12.95 78.2245 12.915 77.7714 12.915C76.8229 12.915 76.1504 13.062 75.7539 13.356C75.3717 13.636 75.1805 13.958 75.1805 14.322C75.1805 14.63 75.2655 14.889 75.4354 15.099C75.6194 15.309 75.9238 15.512 76.3486 15.708C76.7875 15.904 77.375 16.128 78.1112 16.38C78.7908 16.604 79.4138 16.863 79.9801 17.157C80.5464 17.451 80.9924 17.822 81.318 18.27C81.6578 18.704 81.8277 19.264 81.8277 19.95C81.8277 20.538 81.679 21.091 81.3817 21.609C81.0985 22.113 80.6243 22.526 79.9588 22.848C79.2934 23.156 78.4015 23.31 77.283 23.31ZM86.7185 23.31C86.1664 23.31 85.6284 23.254 85.1045 23.142C84.5948 23.03 84.0498 22.82 83.4693 22.512L84.0639 21.084C84.3754 21.266 84.7293 21.427 85.1258 21.567C85.5222 21.693 85.9823 21.756 86.5062 21.756C87.5538 21.756 88.3679 21.378 88.9484 20.622C89.543 19.852 89.8403 18.746 89.8403 17.304C89.8403 15.89 89.5359 14.812 88.9272 14.07C88.3325 13.314 87.4123 12.936 86.1664 12.936C85.7133 12.936 85.2532 12.985 84.786 13.083C84.3188 13.181 83.9082 13.328 83.5542 13.524V11.949C83.9648 11.739 84.4108 11.592 84.8922 11.508C85.3877 11.424 85.8832 11.382 86.3787 11.382C87.6529 11.382 88.6865 11.634 89.4793 12.138C90.2722 12.628 90.8526 13.314 91.2207 14.196C91.5888 15.078 91.7729 16.114 91.7729 17.304C91.7729 19.152 91.3482 20.615 90.4987 21.693C89.6634 22.771 88.4033 23.31 86.7185 23.31ZM100.441 23.31C99.535 23.31 98.7492 23.135 98.0838 22.785C97.4325 22.421 96.9865 21.917 96.7459 21.273H96.6609L96.5547 23.1H95.0044V11.592H96.8945V18.249C96.8945 18.949 97.0148 19.565 97.2555 20.097C97.5104 20.615 97.8714 21.021 98.3386 21.315C98.82 21.595 99.3934 21.735 100.059 21.735C100.894 21.735 101.517 21.518 101.928 21.084C102.338 20.65 102.544 20.013 102.544 19.173V11.592H104.434V19.299C104.434 20.223 104.271 20.979 103.945 21.567C103.634 22.155 103.181 22.596 102.586 22.89C101.991 23.17 101.276 23.31 100.441 23.31Z" fill="white"/>
</svg>
