<svg width="256" height="256" viewBox="0 0 256 256" fill="none" xmlns="http://www.w3.org/2000/svg">
  <circle cx="128" cy="128" r="128" fill="black"/>
  <path d="M128.021 50.0845C154.111 50.0845 180.206 50.1921 206.296 50.0014C207.574 49.9805 208.844 50.2159 210.03 50.6939C211.216 51.1719 212.294 51.8827 213.201 52.7844C214.107 53.6861 214.824 54.7603 215.309 55.9436C215.793 57.1269 216.036 58.3954 216.022 59.674C215.88 102.167 215.944 144.659 215.939 187.147C215.939 193.164 212.434 196.678 206.418 196.678C187.278 196.678 168.137 196.668 148.993 196.649C147.327 196.649 146.872 196.903 147.425 198.652C149.472 205.158 151.398 211.702 153.29 218.252C153.642 219.469 154.238 219.913 155.489 219.865C157.561 219.781 159.634 219.865 161.706 219.84C162.772 219.84 163.26 220.216 163.246 221.331C163.187 226.961 163.857 225.92 158.989 225.93C137.773 225.976 116.558 225.976 95.3425 225.93C92.7569 225.93 92.7374 225.93 92.752 223.305C92.7765 219.444 92.361 219.913 96.1342 219.811C98.1235 219.752 100.489 220.607 101.999 219.41C103.427 218.276 103.368 215.862 103.954 214.009C105.514 209.009 106.99 203.985 108.48 198.965C109.16 196.673 109.14 196.663 106.823 196.663C87.7618 196.663 68.6611 196.541 49.58 196.746C48.3172 196.752 47.066 196.506 45.8988 196.024C44.7316 195.542 43.6718 194.833 42.7807 193.938C41.8895 193.044 41.1849 191.981 40.7077 190.812C40.2304 189.643 39.99 188.39 40.0003 187.128C40.147 144.638 40.147 102.149 40.0003 59.6593C39.9897 58.3806 40.2352 57.1127 40.7223 55.9304C41.2094 54.7481 41.9283 53.6753 42.8366 52.7752C43.7449 51.8751 44.8242 51.1659 46.0109 50.6896C47.1976 50.2132 48.4676 49.9792 49.7462 50.0014C75.8361 50.1921 101.931 50.0845 128.021 50.0845ZM127.908 173.012H207.283C209.834 173.012 209.839 173.012 209.839 170.568C209.839 133.99 209.839 97.411 209.839 60.8323C209.839 57.0836 208.949 56.194 205.206 56.194H50.8459C47.0824 56.194 46.188 57.0787 46.188 60.8079C46.188 97.3866 46.188 133.965 46.188 170.544C46.188 172.988 46.188 173.012 48.7149 173.012H127.908ZM128.094 179.117H49.0961C48.5487 179.117 48.0013 179.117 47.4539 179.117C46.6377 179.117 46.188 179.42 46.1929 180.29C46.1929 182.734 46.1294 185.177 46.2516 187.621C46.3395 189.376 47.4588 190.363 49.2085 190.554C49.9371 190.608 50.668 190.622 51.3982 190.598H204.639C205.186 190.598 205.738 190.598 206.286 190.598C208.642 190.49 209.741 189.425 209.819 187.079C209.878 185.314 209.819 183.545 209.819 181.776C209.819 179.156 209.819 179.151 207.258 179.151L128.094 179.117ZM128.011 219.845C133.803 219.845 139.595 219.801 145.386 219.869C146.853 219.869 147.146 219.518 146.706 218.1C144.673 211.526 142.713 204.928 140.782 198.32C140.435 197.142 139.907 196.644 138.622 196.653C131.548 196.709 124.476 196.709 117.405 196.653C116.12 196.653 115.587 197.142 115.24 198.32C113.314 204.928 111.34 211.521 109.316 218.1C108.876 219.518 109.15 219.889 110.636 219.869C116.428 219.801 122.219 219.845 128.011 219.845Z" fill="white"/>
  <path d="M151.354 167.411H108.016C102.151 167.411 98.622 163.848 98.622 157.939C98.622 137.828 98.622 117.712 98.622 97.5919C98.622 91.6925 102.156 88.1393 108.026 88.1393C118.69 88.1393 129.36 88.1393 140.03 88.1393C141.279 88.1024 142.522 88.3287 143.678 88.8036C144.834 89.2786 145.878 89.9914 146.74 90.8959C149.096 93.281 151.525 95.5977 153.837 98.0268C154.415 98.6496 155.122 99.1386 155.909 99.4594C156.696 99.7802 157.544 99.9252 158.392 99.8841C170.582 99.8483 182.773 99.8483 194.966 99.8841C200.616 99.8841 204.228 103.486 204.253 109.112C204.253 125.511 204.253 141.909 204.253 158.305C204.253 163.804 200.597 167.445 195.079 167.445C180.494 167.429 165.919 167.418 151.354 167.411ZM151.408 161.306H193.47C197.234 161.306 198.133 160.417 198.133 156.697C198.133 141.334 198.133 125.976 198.133 110.622C198.133 106.849 197.249 105.95 193.534 105.95C181.344 105.95 169.155 105.92 156.965 105.95C155.715 105.987 154.472 105.761 153.315 105.285C152.159 104.809 151.116 104.094 150.254 103.188C147.948 100.842 145.553 98.5791 143.299 96.1842C142.682 95.5126 141.924 94.9863 141.078 94.6432C140.233 94.3001 139.323 94.1487 138.412 94.1999C128.72 94.2536 119.033 94.2243 109.34 94.2243C105.606 94.2243 104.722 95.1187 104.717 98.8724V156.668C104.717 160.412 105.611 161.306 109.35 161.306H151.408Z" fill="white"/>
  <path d="M73.363 71.8049C73.7247 71.9369 74.1841 72.0982 74.6338 72.2937C77.6347 73.4618 80.6553 74.6202 83.622 75.9056C84.9026 76.453 85.9778 76.2624 87.2877 75.9056C90.4353 75.0503 92.146 73.0855 93.1235 70.0698C93.886 67.7042 95.0785 65.4755 96.0169 63.1588C96.1525 62.7259 96.4343 62.3537 96.8142 62.1058C97.194 61.8579 97.6483 61.7498 98.0991 61.8C102.425 61.8391 106.755 61.8489 111.085 61.8C112.268 61.8 112.83 62.2888 113.251 63.3201C114.512 66.3602 115.895 69.3514 117.102 72.4061C117.62 73.716 118.378 74.5762 119.722 74.9428C120.017 75.0201 120.3 75.1386 120.562 75.2947C122.737 76.5752 124.839 76.4823 127.117 75.3582C129.56 74.151 132.205 73.325 134.717 72.2253C135.885 71.7121 136.716 71.7903 137.649 72.7482C139.707 74.9281 141.897 77.0737 144.106 79.195C144.942 80.0063 144.995 80.6612 144.135 81.4726C139.888 85.5586 141.256 85.4169 137.688 81.6241C135.675 79.4784 133.959 78.8284 131.335 80.3142C129.653 81.2624 127.703 81.7218 125.958 82.5576C125.286 82.9056 124.54 83.0872 123.783 83.0872C123.026 83.0872 122.281 82.9056 121.608 82.5576C119.404 81.5214 117.146 80.6026 114.863 79.7424C114.293 79.5507 113.773 79.2308 113.345 78.8072C112.918 78.3835 112.593 77.8675 112.395 77.2986C111.33 74.6397 110.113 72.0444 109.037 69.3905C108.909 68.9266 108.622 68.5225 108.226 68.2483C107.831 67.9742 107.352 67.8474 106.872 67.89C100.885 67.7971 100.621 67.6749 98.6318 73.3787C97.1655 77.5918 94.6435 79.9232 90.494 81.541C86.9114 82.934 83.842 83.3836 80.5135 81.4335C79.9105 81.1085 79.2727 80.8527 78.6122 80.671C77.146 80.1823 75.5135 78.6182 74.2134 79.3562C72.3268 80.4462 70.9094 82.3719 69.3258 83.9848C68.7931 84.5273 69.2476 85.1334 69.4676 85.6857C70.5428 88.4032 71.5937 91.1353 72.7276 93.8284C72.9623 94.3206 73.0869 94.858 73.0928 95.4033C73.0988 95.9486 72.9858 96.4886 72.7618 96.9858C71.667 99.5501 70.6031 102.136 69.5702 104.742C69.3999 105.194 69.1327 105.604 68.7874 105.941C68.442 106.279 68.0269 106.537 67.5712 106.697C64.8097 107.831 62.0971 109.087 59.3307 110.212C58.275 110.637 57.8645 111.238 57.8645 112.396C57.7863 118.34 57.6641 118.594 63.2164 120.544C67.4637 122.035 69.8977 124.532 71.5253 128.775C72.9036 132.367 73.3434 135.441 71.3884 138.75C71.3069 138.908 71.2367 139.071 71.1782 139.239C68.8273 145.104 68.842 145.104 73.4412 149.376C73.6962 149.671 74.0447 149.871 74.4288 149.941C74.8129 150.011 75.2095 149.948 75.5526 149.762C78.363 148.589 81.2027 147.484 84.0326 146.341C84.5947 146.116 85.1861 145.759 85.7872 145.998C88.3385 146.976 91.1636 147.621 93.3092 149.21C95.1274 150.573 92.6396 152.343 92.3708 154.004C92.2291 154.899 91.5839 155.138 90.709 154.752C89.4871 154.214 88.2066 153.775 87.0042 153.198C86.5146 152.957 85.9762 152.831 85.4304 152.831C84.8847 152.831 84.3462 152.957 83.8566 153.198C80.7041 154.508 77.5028 155.72 74.3698 157.044C73.9196 157.293 73.396 157.374 72.8915 157.274C72.3871 157.174 71.9343 156.899 71.6132 156.497C68.6807 153.483 65.7058 150.508 62.6885 147.572C61.799 146.712 61.711 145.925 62.146 144.821C63.4363 141.727 64.5898 138.584 65.9045 135.495C66.3933 134.288 66.2711 133.257 65.9045 132.005C65.0101 128.838 63.0844 126.996 59.971 126.023C57.6543 125.304 55.4891 124.122 53.2261 123.208C52.7622 123.073 52.3606 122.78 52.0923 122.378C51.824 121.977 51.7063 121.493 51.7599 121.013C51.8136 116.746 51.8234 112.479 51.7599 108.213C51.7599 106.961 52.2486 106.345 53.3434 105.896C56.4422 104.625 59.5018 103.247 62.6005 101.986C63.6953 101.536 64.2623 100.788 64.8293 99.7668C66.4471 96.8685 66.5301 94.1412 64.9417 91.1695C63.7735 88.975 63.0697 86.541 62.1118 84.2341C61.7256 83.2956 61.7208 82.5576 62.5174 81.7903C65.6504 78.7209 68.7344 75.5928 71.8429 72.5039C72.2584 72.108 72.6298 71.7023 73.363 71.8049Z" fill="white"/>
  <path d="M91.1538 88.4081C91.3947 88.3939 91.6334 88.4608 91.8318 88.5981C92.0302 88.7354 92.177 88.9352 92.2486 89.1656C92.7374 90.0894 93.0893 91.0669 93.622 91.9515C94.3796 93.2028 94.1548 93.9066 92.8351 94.669C88.0246 97.431 84.4066 101.876 82.6787 107.147C80.9609 112.114 80.9981 117.52 82.7841 122.462C84.5702 127.405 87.997 131.586 92.493 134.307C94.0081 135.231 94.3943 135.906 93.5047 137.548C91.4715 141.297 92.3464 141.898 88.0306 138.975C70.0981 126.824 71.0854 99.8254 89.8537 89.063C90.3034 88.7942 90.8019 88.5791 91.1538 88.4081Z" fill="white"/>
  <path d="M135.905 119.488C135.739 120.045 135.396 120.533 134.927 120.876C131.613 124.205 128.339 127.567 124.947 130.813C123.808 131.903 123.925 132.528 124.995 133.555C128.378 136.81 131.633 140.202 134.995 143.472C135.944 144.395 136.036 144.992 135.049 145.989C131.867 149.19 131.906 149.229 128.695 145.989C124.6 141.893 120.533 137.763 116.384 133.721C115.24 132.607 115.03 131.893 116.3 130.661C121.11 125.989 125.836 121.228 130.533 116.438C131.54 115.412 132.244 115.319 133.167 116.438C133.822 117.235 134.634 117.905 135.347 118.657C135.552 118.921 135.738 119.199 135.905 119.488Z" fill="white"/>
  <path d="M170.885 115.495C171.113 115.524 171.332 115.599 171.53 115.715C171.729 115.831 171.901 115.985 172.038 116.17C176.999 121.126 181.941 126.096 186.926 131.028C187.776 131.869 187.752 132.46 186.926 133.291C181.986 138.178 177.071 143.094 172.18 148.037C171.364 148.863 170.821 148.912 169.937 148.076C166.545 144.84 166.515 144.869 169.805 141.575C172.566 138.819 175.294 136.023 178.114 133.32C179.047 132.421 179.008 131.854 178.114 130.974C174.692 127.66 171.413 124.224 167.982 120.93C166.858 119.845 166.882 119.107 168.04 118.164C168.793 117.548 169.424 116.79 170.127 116.116C170.369 115.896 170.622 115.688 170.885 115.495Z" fill="white"/>
  <path d="M147.693 148.286C146.261 147.455 144.727 146.693 143.343 145.72C142.605 145.197 143.343 144.488 143.632 143.951C147.04 137.76 150.461 131.587 153.896 125.432C154.873 123.672 155.89 121.942 156.804 120.158C157.346 119.092 157.918 118.99 158.964 119.522C163.163 121.649 163.202 121.629 160.919 125.73C157.038 132.765 153.138 139.786 149.218 146.795C148.91 147.396 148.676 148.164 147.693 148.286Z" fill="white"/>
</svg>