<svg width="256" height="256" viewBox="0 0 256 256" fill="none" xmlns="http://www.w3.org/2000/svg">
  <circle cx="128" cy="128" r="128" fill="black"/>
  <path d="M179.458 175.48C179.458 175.48 176.426 177.115 181.607 177.659C187.066 178.374 192.607 178.158 197.994 177.022C199.394 177.794 200.855 178.451 202.361 178.987C186.888 185.204 167.308 178.634 179.458 175.48ZM177.562 167.444C177.562 167.444 174.162 169.808 179.343 170.276C186.403 171.049 193.54 170.731 200.504 169.332C201.455 170.156 202.562 170.782 203.758 171.174C185.03 176.255 164.176 171.573 177.585 167.444H177.562Z" fill="white"/>
  <path d="M193.55 153.828C197.387 157.896 192.544 161.564 192.544 161.564C192.544 161.564 202.246 156.959 197.786 151.111C193.626 145.738 190.434 142.998 207.703 133.734C207.703 133.734 180.602 139.997 193.55 153.828Z" fill="white"/>
  <path d="M214.05 181.42C214.05 181.42 216.276 183.132 211.579 184.452C202.676 186.962 174.354 187.714 166.487 184.56C163.662 183.378 168.958 181.835 170.624 181.489C171.521 181.28 172.442 181.185 173.364 181.206C170.217 179.149 153.001 185.227 164.645 186.97C196.236 191.736 222.248 184.851 214.05 181.42ZM180.993 159.124C180.993 159.124 166.602 162.294 175.904 163.445C182.259 163.9 188.641 163.834 194.985 163.245C200.941 162.785 206.912 161.795 206.912 161.795C205.649 162.301 204.425 162.902 203.251 163.591C188.63 167.129 160.408 165.502 168.544 161.856C172.413 160.044 176.636 159.11 180.909 159.124H180.993ZM206.782 172.494C221.634 165.348 214.764 158.471 209.967 159.392C209.394 159.498 208.827 159.639 208.271 159.814C208.596 159.393 209.04 159.078 209.545 158.909C219.024 155.839 226.316 168.027 206.475 172.855C206.585 172.752 206.676 172.629 206.744 172.494H206.782Z" fill="white"/>
  <path d="M197.748 118.744C197.748 118.744 205.968 126.366 189.95 138.093C177.102 147.526 187.01 152.861 189.95 158.993C182.459 152.715 176.948 147.196 180.64 142.062C186.082 134.501 201.11 130.894 197.748 118.744Z" fill="white"/>
  <path d="M182.398 191.882C196.643 192.726 218.54 191.406 219.062 185.158C219.062 185.158 218.057 187.515 207.281 189.403C195.343 191.298 183.195 191.474 171.207 189.925C171.207 189.925 173.034 191.322 182.398 191.882Z" fill="white"/>
  <path d="M65.8175 65.5312C66.1091 65.6386 66.4776 65.7691 66.846 65.9226C69.256 66.859 71.6814 67.7954 74.0684 68.8239C75.0163 69.1923 76.0678 69.1923 77.0157 68.8239C79.5486 68.1408 80.9225 66.5597 81.7053 64.1343C82.3194 62.2308 83.2404 60.4425 84.0079 58.5774C84.1201 58.2317 84.3474 57.935 84.6519 57.7367C84.9564 57.5384 85.3197 57.4504 85.6811 57.4875C89.1581 57.4875 92.6426 57.5259 96.1272 57.4875C96.5226 57.4507 96.918 57.5577 97.2409 57.7889C97.5637 58.0202 97.7924 58.36 97.8849 58.7462C98.898 61.1946 100.011 63.597 100.955 66.0531C101.108 66.5418 101.38 66.9845 101.747 67.3411C102.114 67.6977 102.565 67.9567 103.058 68.0947C103.295 68.1547 103.522 68.2478 103.733 68.371C104.525 68.8575 105.434 69.1196 106.362 69.129C107.291 69.1385 108.205 68.895 109.006 68.4248C110.971 67.4577 113.097 66.7899 115.147 65.9073C115.524 65.6806 115.971 65.5985 116.404 65.6761C116.837 65.7538 117.228 65.9859 117.503 66.3294C119.153 68.0794 120.918 69.8063 122.691 71.5102C123.367 72.1626 123.405 72.6846 122.691 73.337C119.276 76.622 120.389 76.5145 117.511 73.4598C115.891 71.7405 114.51 71.2186 112.399 72.4082C111.048 73.1758 109.482 73.5442 108.078 74.2119C107.538 74.4918 106.939 74.6379 106.332 74.6379C105.724 74.6379 105.125 74.4918 104.585 74.2119C102.812 73.383 100.993 72.6769 99.159 71.9094C98.6995 71.7572 98.2816 71.5005 97.938 71.1596C97.5944 70.8187 97.3345 70.4028 97.1787 69.9445C96.3191 67.8107 95.3443 65.7231 94.477 63.5893C94.3726 63.2153 94.1403 62.8899 93.8205 62.6696C93.5007 62.4494 93.1137 62.3484 92.7271 62.3843C87.9147 62.3076 87.6997 62.2078 86.1033 66.7976C84.929 70.1824 82.895 72.0552 79.5639 73.36C76.6857 74.4806 74.1912 74.8413 71.5356 73.2679C71.0489 73.0075 70.5338 72.804 70.0005 72.6615C68.8262 72.2624 67.5137 71.0037 66.4699 71.6023C64.9348 72.4773 63.8066 74.0277 62.5401 75.3249C62.1103 75.7547 62.4711 76.2459 62.6476 76.6911C63.5149 78.8708 64.3592 81.0737 65.2725 83.2381C65.4582 83.6345 65.5544 84.0668 65.5544 84.5045C65.5544 84.9422 65.4582 85.3746 65.2725 85.7709C64.3976 87.8356 63.5379 89.9156 62.709 92.011C62.5687 92.3677 62.3525 92.6897 62.0756 92.9547C61.7986 93.2198 61.4674 93.4215 61.1048 93.546C58.8867 94.4517 56.6992 95.4648 54.4811 96.3705C54.1081 96.474 53.7843 96.707 53.5676 97.0277C53.351 97.3484 53.2558 97.7359 53.2991 98.1205C53.2377 102.902 53.1379 103.109 57.6049 104.675C61.0204 105.873 62.9776 107.883 64.2824 111.291C65.3877 114.177 65.7407 116.664 64.175 119.312C64.1063 119.437 64.0498 119.568 64.0061 119.703C62.1103 124.416 62.1257 124.416 65.8635 127.824C66.0688 128.061 66.349 128.221 66.6575 128.277C66.9661 128.332 67.2844 128.281 67.5598 128.131C69.8163 127.187 72.1035 126.304 74.3754 125.383C74.8283 125.199 75.3041 124.915 75.7877 125.107C77.837 125.874 80.1089 126.412 81.8358 127.686C83.2941 128.783 81.2986 130.203 81.0683 131.523C80.9608 132.245 80.4389 132.437 79.7328 132.13C78.7504 131.7 77.7219 131.362 76.7548 130.879C76.3619 130.686 75.93 130.585 75.4922 130.585C75.0544 130.585 74.6225 130.686 74.2296 130.879C71.6891 131.93 69.1179 132.905 66.6004 133.949C66.2375 134.145 65.8174 134.209 65.4125 134.129C65.0076 134.05 64.6432 133.831 64.3822 133.511C62.0233 131.086 59.6312 128.694 57.2058 126.335C56.888 126.074 56.6711 125.711 56.5927 125.307C56.5142 124.904 56.579 124.485 56.776 124.124C57.7738 121.684 58.7025 119.135 59.7233 116.656C60.0687 115.752 60.0687 114.752 59.7233 113.847C59.4395 112.689 58.846 111.63 58.0064 110.784C57.1667 109.937 56.1126 109.335 54.9569 109.042C53.0918 108.459 51.3496 107.507 49.5305 106.74C49.1578 106.632 48.8353 106.395 48.6204 106.072C48.4054 105.749 48.3118 105.36 48.3562 104.975C48.3562 101.544 48.4022 98.1128 48.3562 94.682C48.3492 94.2754 48.4841 93.8791 48.7376 93.5611C48.9912 93.2432 49.3475 93.0234 49.7454 92.9397C52.2322 91.9112 54.696 90.8059 57.1828 89.7928C57.973 89.438 58.6043 88.8039 58.9558 88.0121C59.5991 86.9781 59.9471 85.7877 59.962 84.57C59.9769 83.3523 59.6581 82.1538 59.0402 81.1044C58.1038 79.339 57.5051 77.3818 56.7376 75.5321C56.549 75.2197 56.4779 74.8504 56.537 74.4903C56.5961 74.1302 56.7815 73.803 57.06 73.5672C59.5851 71.0958 62.0643 68.586 64.5587 66.0992C64.7013 65.9035 64.8923 65.7483 65.113 65.6487C65.3337 65.5492 65.5764 65.5087 65.8175 65.5312Z" fill="white"/>
  <path d="M80.1242 78.8785C80.3177 78.8675 80.5094 78.9211 80.6692 79.0309C80.8289 79.1406 80.9477 79.3003 81.0069 79.4848C81.3983 80.2524 81.6823 81.0199 82.1045 81.726C82.7185 82.7315 82.5343 83.2994 81.4751 83.9135C77.6067 86.1332 74.6975 89.7069 73.3086 93.9451C71.9305 97.9389 71.9635 102.285 73.4022 106.257C74.8409 110.229 77.5982 113.588 81.2141 115.774C82.4345 116.541 82.7492 117.063 82.0277 118.383C80.3929 121.392 81.099 121.875 77.6298 119.527C63.2079 109.764 64.0061 88.0581 79.0957 79.4004C79.4291 79.2084 79.7724 79.0341 80.1242 78.8785Z" fill="white"/>
  <path d="M116.098 103.862C115.975 104.31 115.705 104.705 115.331 104.982C112.667 107.653 110.035 110.355 107.302 112.964C106.389 113.847 106.481 114.346 107.302 115.175C110.027 117.792 112.675 120.548 115.346 123.142C116.114 123.909 116.183 124.362 115.392 125.168C112.829 127.739 112.859 127.77 110.28 125.168C106.988 121.876 103.718 118.552 100.379 115.305C99.466 114.407 99.2971 113.839 100.318 112.849C104.156 109.088 107.993 105.258 111.754 101.413C112.568 100.584 113.136 100.515 113.872 101.413C114.402 102.05 115.054 102.587 115.63 103.194C115.8 103.406 115.956 103.629 116.098 103.862Z" fill="white"/>
  <path d="M144.221 100.653C144.404 100.677 144.581 100.737 144.741 100.831C144.9 100.925 145.039 101.05 145.149 101.198L157.115 113.141C157.798 113.816 157.783 114.292 157.115 114.96C153.15 118.89 149.199 122.84 145.264 126.811C144.604 127.478 144.167 127.517 143.461 126.811C140.728 124.209 140.705 124.232 143.353 121.584C145.571 119.366 147.767 117.117 150.031 114.945C150.798 114.223 150.752 113.763 150.031 113.057C147.283 110.393 144.658 107.63 141.887 104.982C140.982 104.115 141.005 103.516 141.933 102.764C142.54 102.265 143.046 101.659 143.614 101.114C143.806 100.96 144.013 100.799 144.221 100.653Z" fill="white"/>
  <path d="M125.577 127.056C124.426 126.389 123.19 125.775 122.077 124.992C121.486 124.57 122.077 124.002 122.308 123.564C125.05 118.57 127.803 113.594 130.566 108.636C131.334 107.216 132.163 105.826 132.869 104.391C133.306 103.539 133.767 103.455 134.603 103.885C137.981 105.596 138.011 105.573 136.139 108.874C133.022 114.533 129.888 120.177 126.736 125.805C126.552 126.289 126.368 126.918 125.577 127.056Z" fill="white"/>
  <path d="M233.438 160.828C233.438 169.447 230.882 177.873 226.094 185.04C221.305 192.206 214.499 197.792 206.535 201.091C198.572 204.389 189.81 205.252 181.356 203.571C172.902 201.889 165.137 197.738 159.042 191.644C152.947 185.549 148.797 177.783 147.115 169.33C145.433 160.876 146.296 152.113 149.595 144.15C152.893 136.187 158.479 129.381 165.646 124.592C172.813 119.803 181.239 117.247 189.858 117.247C201.416 117.247 212.501 121.839 220.674 130.012C228.847 138.185 233.438 149.269 233.438 160.828ZM237.03 160.828C237.03 151.498 234.264 142.378 229.08 134.62C223.897 126.863 216.53 120.816 207.91 117.246C199.29 113.676 189.806 112.742 180.655 114.562C171.504 116.382 163.099 120.875 156.502 127.472C149.905 134.069 145.412 142.474 143.592 151.625C141.772 160.775 142.706 170.26 146.276 178.88C149.847 187.499 155.893 194.867 163.65 200.05C171.408 205.233 180.528 208 189.858 208C202.367 207.998 214.364 203.027 223.209 194.181C232.054 185.334 237.023 173.337 237.023 160.828" fill="white"/>
  <path d="M148.864 137.479H94.7533C91.7446 137.479 91.0231 136.766 91.0231 133.749V87.2906C91.0231 84.2742 91.7446 83.5527 94.7457 83.5527H118.117C118.849 83.5112 119.58 83.6321 120.26 83.9068C120.939 84.1815 121.549 84.6031 122.047 85.1415C123.858 87.068 125.785 88.8871 127.634 90.7752C128.325 91.5003 129.16 92.0725 130.085 92.4546C131.011 92.8367 132.006 93.0202 133.007 92.9933H162.403C165.389 92.9933 166.103 93.7148 166.103 96.7542V120.056C167.691 119.131 169.331 118.298 171.015 117.562V95.5185C171.015 90.9978 168.091 88.1042 163.547 88.1042C153.748 88.0735 143.947 88.0735 134.143 88.1042C133.458 88.1311 132.775 88.0076 132.142 87.7424C131.51 87.4772 130.943 87.0767 130.482 86.5691C128.624 84.6196 126.644 82.7315 124.779 80.8357C124.087 80.1131 123.252 79.5431 122.326 79.1624C121.401 78.7818 120.407 78.5988 119.406 78.6252H93.6865C88.9662 78.6252 86.1263 81.4804 86.1263 86.2237V134.732C86.1263 139.483 88.9662 142.345 93.6788 142.345H128.517L146.454 142.407C147.161 140.719 147.966 139.074 148.864 137.479Z" fill="white"/>
  <path d="M138.08 185.734C138.08 184.844 137.697 184.537 136.845 184.537C135.179 184.537 133.506 184.491 131.84 184.537C131.439 184.601 131.029 184.504 130.7 184.266C130.371 184.029 130.149 183.671 130.083 183.27C128.548 178.005 127.013 172.74 125.37 167.513C124.925 166.108 125.286 165.901 126.629 165.901H142.97C142.793 164.282 142.701 162.655 142.693 161.027H48.1643C47.5788 161.058 46.9921 161.058 46.4067 161.027C45.7796 161.027 45.1779 160.78 44.7323 160.338C44.2867 159.897 44.0334 159.298 44.0273 158.671C43.9275 156.706 43.9813 154.741 43.9813 152.776C43.9813 152.078 44.3343 151.832 44.9944 151.832H143.591C143.913 150.17 144.32 148.525 144.812 146.905H46.0075C43.9736 146.905 43.9736 146.905 43.9736 144.924V56.6892C43.9736 53.6882 44.6951 52.982 47.7191 52.982H171.783C174.791 52.982 175.505 53.6958 175.505 56.7122V115.866C177.113 115.354 178.748 114.929 180.402 114.592C180.402 94.9889 180.428 75.3837 180.479 55.7758V55.5686C180.465 54.5606 180.252 53.5653 179.854 52.6395C179.455 51.7136 178.878 50.8754 178.155 50.1726C177.432 49.4698 176.578 48.9163 175.641 48.5437C174.705 48.171 173.704 47.9866 172.696 48.0008C151.719 48.1543 130.743 48.0698 109.759 48.0698C88.7743 48.0698 67.8131 48.1543 46.8365 48.0008H46.6753C44.6397 48.0008 42.6874 48.8094 41.248 50.2488C39.8086 51.6882 39 53.6404 39 55.6761V55.7682C39.1126 89.9232 39.1126 124.081 39 158.241V158.333C39.0101 160.362 39.8233 162.304 41.2616 163.736C42.6999 165.167 44.6463 165.97 46.6753 165.97C62.0259 165.809 77.3765 165.909 92.7271 165.909C94.5922 165.909 94.6075 165.909 94.0626 167.758C92.8652 171.788 91.6755 175.833 90.4245 179.847C89.9486 181.336 89.9947 183.278 88.8894 184.191C87.7842 185.105 85.7732 184.467 84.1768 184.514C81.1067 184.598 81.4751 184.222 81.4521 187.323C81.4521 189.433 81.4521 189.433 83.5397 189.433C100.594 189.469 117.649 189.469 134.703 189.433C138.572 189.426 138.011 190.262 138.08 185.734ZM123.72 184.56C119.069 184.506 114.41 184.56 109.751 184.56C105.092 184.56 100.441 184.56 95.7818 184.56C94.5922 184.56 94.3696 184.276 94.7226 183.14C96.3498 177.854 97.9386 172.553 99.489 167.236C99.539 166.838 99.743 166.476 100.057 166.226C100.371 165.976 100.771 165.86 101.17 165.901C106.86 165.937 112.547 165.937 118.232 165.901C118.432 165.873 118.636 165.884 118.832 165.935C119.027 165.986 119.211 166.075 119.372 166.197C119.533 166.319 119.669 166.471 119.771 166.646C119.873 166.82 119.939 167.013 119.967 167.213C121.502 172.525 123.088 177.826 124.725 183.117C125.14 184.276 124.902 184.56 123.72 184.56Z" fill="white"/>
</svg>